<svg width="114" height="40" viewBox="0 0 114 40" fill="none" xmlns="http://www.w3.org/2000/svg">
<g id="logo">
<path id="Vector" d="M109.421 20.9819C108.854 21.6724 108.33 22.3769 107.721 23.011C106.7 24.0538 105.454 24.2793 104.065 23.8706C103.994 23.8424 103.909 23.8424 103.782 23.8283C103.966 24.392 103.711 24.8429 103.498 25.2938C103.002 26.3225 102.351 27.2243 101.486 27.9853C99.3469 29.8594 95.9889 29.3944 94.2178 27.6753C93.056 26.5339 92.3475 25.1529 91.965 23.6029C91.384 21.2919 91.2849 18.9528 91.4549 16.5854C91.6107 14.4717 91.9366 12.3721 92.6734 10.3712C93.1693 9.0325 93.8069 7.79247 94.8837 6.82017C95.9039 5.89015 97.094 5.52378 98.4401 5.79151C100.069 6.11561 101.146 7.45428 101.16 9.21569C101.189 11.0053 100.792 12.7385 100.211 14.4154C99.2193 17.3041 97.7883 19.9532 95.833 22.3065C95.6772 22.5038 95.578 22.6729 95.6347 22.9406C95.918 24.1383 96.499 25.1811 97.4058 25.9984C98.4826 26.9566 100.169 26.8861 101.401 25.8575C101.94 25.4066 102.365 24.8711 102.606 24.1947C102.705 23.9129 102.875 23.6592 103.031 23.3351C103.045 23.3492 103.045 23.3774 103.031 23.3351C102.053 22.4897 101.656 21.3765 101.642 20.1082C101.628 19.0937 101.713 18.0932 102.152 17.1491C102.209 17.0082 102.294 16.8813 102.365 16.7545C102.776 16.1345 103.512 16.1486 103.895 16.8109C104.193 17.3182 104.278 17.8959 104.278 18.4737C104.292 19.15 104.278 19.8264 104.278 20.5169C104.278 20.7142 104.32 20.9114 104.377 21.1087C104.533 21.6583 105.071 21.8274 105.496 21.4469C105.779 21.1933 106.035 20.8833 106.233 20.5592C106.8 19.6291 107.338 18.6709 107.876 17.7409C108.202 17.1913 108.67 16.825 109.279 16.6277C110.143 16.3459 110.767 16.5009 111.249 17.2618C111.702 17.9805 112.113 18.7555 112.382 19.5587C113.346 22.4333 113.941 25.4066 113.997 28.4503C114.04 31.0712 113.586 33.6218 112.184 35.8905C111.107 37.6237 109.662 38.9764 107.664 39.5683C103.952 40.6674 101.43 38.5396 100.735 35.4254C100.084 32.4945 101.586 30.268 103.682 28.9716C104.958 28.1684 106.36 27.633 107.876 27.478C108.231 27.4357 108.599 27.478 108.967 27.5202C109.251 27.5484 109.307 27.7175 109.109 27.9289C108.982 28.0698 108.826 28.1684 108.67 28.2812C107.706 28.9576 106.7 29.5776 105.808 30.3385C105.156 30.8881 104.603 31.5926 104.079 32.269C103.711 32.734 103.555 33.3118 103.64 33.9318C103.739 34.7209 104.306 35.2704 105.114 35.3268C105.723 35.3691 106.318 35.2986 106.87 35.045C108.953 34.1291 110.2 32.5931 110.512 30.3244C110.824 28.098 110.554 25.9138 110.115 23.7297C109.945 22.9124 109.718 22.1233 109.506 21.306C109.492 21.1792 109.449 21.0524 109.421 20.9819ZM95.2804 19.8123C95.3088 19.8123 95.3513 19.8264 95.3796 19.8264C95.5496 19.5446 95.7055 19.2628 95.8614 18.9809C97.3916 16.1768 98.6809 13.2881 98.9218 10.0471C98.9643 9.55388 98.9218 9.0325 98.8085 8.5534C98.6668 7.96157 98.0858 7.67974 97.5333 7.94748C97.1649 8.11657 96.7823 8.3984 96.584 8.73659C96.2156 9.38479 95.9039 10.0753 95.7197 10.7939C95.0962 13.2599 95.0679 15.7822 95.1671 18.3046C95.2096 18.8118 95.2521 19.3191 95.2804 19.8123Z" fill="#2B41B7"/>
<path id="Vector_2" d="M46.2283 26.7875C45.6474 27.337 45.1232 27.8302 44.6273 28.3516C44.5422 28.4362 44.5564 28.6334 44.5706 28.7743C44.8398 30.9726 44.8823 33.1708 44.3722 35.3409C44.1597 36.2286 43.8905 37.1164 43.3662 37.8773C42.6011 38.9905 41.6093 39.7655 40.235 39.9628C39.0164 40.1319 37.9963 39.7233 37.2454 38.751C36.3952 37.6518 36.2677 36.3977 36.4802 35.0731C36.8911 32.5931 38.393 30.8317 40.3058 29.338C40.3766 29.2816 40.4475 29.2112 40.5325 29.1689C41.0001 28.9716 41.0992 28.6475 40.9576 28.1684C40.5892 26.8438 40.3766 25.4629 39.6399 24.251C39.4557 23.9551 39.2573 23.6733 38.9173 23.3069C38.8323 23.4338 38.7756 23.5888 38.6764 23.6874C38.1238 24.1242 37.5996 24.5892 37.0045 24.9697C36.3669 25.3924 35.7151 25.3079 35.12 24.8147C34.2416 24.082 33.7173 23.1237 33.3631 22.0669C32.7822 20.3337 33.0797 18.6991 33.8307 17.0927C34.4399 15.7963 36.0552 15.134 37.4154 15.5286C38.7331 15.909 39.9232 16.529 40.9859 17.4027C41.1134 17.5154 41.2551 17.6422 41.3543 17.7832C41.4251 17.8959 41.4818 18.065 41.4393 18.1636C41.3968 18.2482 41.1984 18.3327 41.0851 18.3186C40.6458 18.2904 40.1924 18.2059 39.7532 18.1636C39.1156 18.1073 38.4639 18.0368 37.8121 17.9945C37.2595 17.9663 36.8628 18.2059 36.6361 18.7132C36.1402 19.8123 35.9277 20.9396 36.1544 22.1374C36.1827 22.2501 36.211 22.3628 36.2535 22.4755C36.4944 23.0815 36.7636 23.1519 37.2737 22.7292C37.7129 22.3769 38.1238 21.9964 38.5914 21.6583C39.8099 20.7705 40.9717 20.9114 41.8927 22.1233C42.8845 23.4197 43.6496 24.8429 43.9755 26.4634C43.9897 26.5057 44.0038 26.5479 44.018 26.6466C44.1455 26.5761 44.2589 26.5338 44.358 26.4634C44.854 26.1675 45.3357 25.8434 45.8316 25.5615C46.0866 25.4206 46.1575 25.2515 46.1575 24.9838C46.1291 22.7151 46.0583 20.4605 46.0866 18.1918C46.1291 15.4863 46.2283 12.7808 46.3842 10.0752C46.4408 8.9902 46.6817 7.90518 46.9084 6.82015C47.1635 5.56603 47.8436 5.27011 49.1187 5.56603C50.8332 5.94649 52.3209 7.84881 52.4767 9.51158C52.7318 12.0339 51.9667 14.2744 50.819 16.4445C50.4506 17.1631 50.068 17.8677 49.6997 18.5864C49.6288 18.7273 49.5863 18.8823 49.6005 19.0796C49.6713 18.9809 49.728 18.8964 49.7988 18.7977C50.3939 17.8818 51.0882 17.0645 51.9808 16.4304C53.6527 15.2608 55.5513 15.6976 56.5431 17.4872C57.0532 18.3891 57.2941 19.3896 57.3933 20.4041C57.5208 21.6723 57.5633 22.9547 57.6908 24.2229C57.7475 24.9274 57.8325 25.6461 57.9884 26.3366C58.3001 27.8161 59.7736 29.0421 61.2897 29.1971C61.4455 29.2112 61.6439 29.3662 61.7147 29.5212C61.7572 29.6057 61.6014 29.8594 61.488 29.9157C61.0771 30.0848 60.6662 30.2962 60.227 30.3385C58.4559 30.5217 56.9399 29.8876 55.6363 28.718C55.0129 28.1543 54.7296 27.3652 54.5737 26.5761C54.3187 25.2797 54.1345 23.9692 53.9361 22.6587C53.7944 21.6864 53.7377 20.7 53.2985 19.7841C52.9585 19.0796 52.2217 18.9386 51.6408 19.46C51.4566 19.6291 51.2724 19.8123 51.1732 20.0237C50.8898 20.6578 50.5923 21.306 50.4081 21.9683C49.9972 23.4478 49.8555 24.9838 49.7563 26.5197C49.728 26.9002 49.7138 27.2948 49.643 27.6752C49.5155 28.3234 48.9912 28.718 48.3536 28.563C47.8577 28.4502 47.3618 28.253 46.9226 27.9852C46.6676 27.8302 46.54 27.4779 46.37 27.2102C46.3133 27.1398 46.2992 27.0129 46.2283 26.7875ZM48.9204 16.8249C48.9629 16.8249 49.0054 16.839 49.0621 16.839C49.0904 16.7686 49.1329 16.6981 49.1612 16.6277C49.7563 14.8381 50.2664 13.0203 50.5356 11.1462C50.6915 10.0189 50.5923 8.90566 50.1247 7.84881C50.0539 7.69381 49.8555 7.48244 49.7422 7.49653C49.5863 7.52471 49.4446 7.72199 49.3313 7.8629C49.2604 7.96154 49.2321 8.10245 49.2038 8.22928C49.1046 8.8352 48.9487 9.42703 48.9487 10.033C48.9062 12.3017 48.9204 14.5563 48.9204 16.8249ZM41.0284 31.198C40.3058 31.8321 39.6824 32.4944 39.229 33.2976C38.7897 34.0586 38.6764 34.8618 38.8748 35.6932C38.9456 35.9609 39.1015 36.2427 39.2715 36.4541C39.569 36.8205 40.0366 36.8346 40.3625 36.4964C40.575 36.2709 40.745 35.9891 40.83 35.6932C41.2409 34.2699 41.1559 32.8044 41.0851 31.339C41.0851 31.3108 41.0567 31.2826 41.0284 31.198Z" fill="#2B41B7"/>
<path id="Vector_3" d="M8.36952 16.7263C9.26215 16.6981 10.0273 16.7968 10.7357 17.1491C12.1101 17.7973 12.9602 18.9105 13.4136 20.3055C14.0228 22.1374 14.037 23.9692 13.0735 25.6884C11.7275 28.0698 8.52538 29.1548 6.07419 28.098C5.32325 27.7739 4.74233 27.2666 4.27476 26.6043C4.20392 26.5057 4.13307 26.407 3.97722 26.3366C3.97722 26.4775 3.99139 26.6043 3.97722 26.7452C3.94888 27.1539 3.94888 27.5625 3.86387 27.9571C3.75052 28.4362 3.32546 28.6616 2.82955 28.5912C1.73856 28.4503 1.05846 27.8021 0.619232 26.8439C0.236677 26.0125 0.137496 25.1106 0.0666524 24.2088C-0.13171 21.616 0.123327 19.0373 0.690076 16.5009C1.05846 14.8381 1.46936 13.1894 2.19196 11.6535C2.91456 10.1175 3.96305 8.8634 5.35158 7.84883C7.20769 6.49607 10.3248 7.35563 11.2599 9.63842C11.6142 10.5121 11.4583 11.3576 11.1749 12.2171C10.6649 13.7953 9.78639 15.1622 8.68123 16.374C8.59622 16.4586 8.51121 16.5572 8.36952 16.7263ZM7.5194 21.3905C7.5194 21.4469 7.50523 21.5033 7.50523 21.5596C7.23602 21.7146 6.96682 21.8696 6.68344 22.0246C5.9325 22.4615 5.33742 23.011 5.11072 23.8706C4.88402 24.7161 5.13905 25.2797 5.91833 25.6602C6.69761 26.0407 7.49106 26.0125 8.29868 25.8011C9.78639 25.4065 10.8349 24.5752 11.0899 22.9829C11.2741 21.8556 11.1183 20.7564 10.594 19.7419C9.85724 18.3186 8.86543 17.7691 7.27853 18.0086C5.09655 18.3468 4.61481 19.0796 4.35977 20.4182C4.27476 20.8833 4.20392 21.3764 4.3031 21.8978C4.44479 21.8133 4.5298 21.7569 4.62898 21.7005C5.32325 21.3483 6.06002 21.0805 6.86764 21.151C7.08017 21.1792 7.2927 21.306 7.5194 21.3905ZM9.33299 11.3435C9.33299 11.2589 9.33299 11.2026 9.33299 11.1321C9.29049 10.7657 9.27632 10.3712 8.85126 10.188C8.44036 10.0189 8.10032 10.1739 7.7886 10.4416C7.67525 10.5262 7.5619 10.6248 7.47689 10.7375C7.00932 11.4139 6.51342 12.0621 6.10253 12.7667C5.54995 13.739 5.12488 14.7676 4.91235 15.8668C4.799 16.4022 4.88402 16.4868 5.40826 16.374C5.53578 16.3459 5.6633 16.3177 5.79081 16.2754C7.98697 15.5849 9.26215 13.1612 9.33299 11.3435Z" fill="#2B41B7"/>
<path id="Vector_4" d="M71.2928 22.5601C71.2645 23.617 71.4061 24.6174 72.0579 25.4911C72.4688 26.0266 73.0497 26.1816 73.7015 26.097C74.4949 25.9843 75.2317 25.7306 75.7559 25.1106C76.3369 24.4483 76.8469 23.7297 77.3853 23.0392C77.5412 22.8419 77.6404 22.4897 77.9804 22.5883C78.3346 22.6869 78.4055 23.0392 78.3488 23.3351C78.2496 23.927 78.1505 24.547 77.9096 25.0965C77.1161 26.9143 75.8126 28.1966 73.8148 28.6475C71.4203 29.1689 69.0541 28.0416 67.949 25.8716C67.1555 24.3215 66.9997 22.6728 67.1272 20.9819C67.2405 19.5587 67.6798 18.2482 68.4165 17.0082C69.3375 15.4299 70.7402 14.5563 72.4546 14.1054C73.2622 13.894 74.0982 13.7672 74.9342 13.894C76.1385 14.0913 77.017 14.979 77.2153 16.1768C77.3712 17.0927 77.2437 17.9805 76.8328 18.8118C75.7276 21.0242 73.9707 22.3347 71.4487 22.5178C71.4203 22.5178 71.3778 22.5319 71.2928 22.5601ZM71.2361 20.2914C72.7805 19.925 73.9707 19.1923 74.7783 17.9241C75.0617 17.4873 75.2175 16.98 75.0475 16.4586C75.005 16.3459 74.835 16.1768 74.7358 16.1909C74.3532 16.2331 73.9423 16.2472 73.6165 16.4163C72.3271 17.135 71.5903 18.2905 71.2361 19.6996C71.1936 19.8546 71.2361 20.0378 71.2361 20.2914Z" fill="#2B41B7"/>
<path id="Vector_5" d="M64.9452 12.513C65.6819 12.513 66.362 12.4989 67.0421 12.513C67.3539 12.5271 67.6656 12.5976 67.9773 12.668C68.2323 12.7244 68.4874 12.8371 68.5299 13.1471C68.5724 13.4571 68.4165 13.6967 68.1615 13.8094C67.6514 14.063 67.1413 14.2885 66.6171 14.4717C66.1353 14.6408 65.6111 14.7394 65.1719 14.8522C65.1719 15.6835 65.1577 16.5008 65.1719 17.3181C65.2427 20.0659 65.3136 22.7996 65.0444 25.5333C64.9735 26.2097 64.7893 26.9002 64.4918 27.5061C63.9675 28.5771 63.1458 28.3657 62.2673 27.9289C62.0973 27.8443 61.9981 27.5202 61.9697 27.2807C61.8139 25.9702 61.6155 24.6597 61.573 23.3351C61.4738 20.7846 61.4597 18.2341 61.403 15.6695C61.403 15.5849 61.3888 15.5144 61.3888 15.3876C61.2471 15.4017 61.1338 15.4158 61.0063 15.4299C60.312 15.5426 59.6177 15.6131 58.9376 15.3876C58.8101 15.3454 58.6968 15.3031 58.5834 15.2326C58.0167 14.8803 57.96 14.1899 58.5268 13.8658C59.1643 13.4994 59.8586 13.2317 60.5529 12.978C61.1763 12.7526 61.2188 12.7948 61.2188 12.1466C61.233 11.0616 61.2188 9.96249 61.233 8.87746C61.2471 8.22926 61.2613 7.59516 61.3322 6.94696C61.3888 6.3974 61.7147 6.18603 62.2531 6.20012C63.2308 6.24239 64.846 7.39788 64.8035 8.77882C64.761 10.0189 64.8885 11.2589 64.9452 12.513Z" fill="#2B41B7"/>
<path id="Vector_6" d="M19.7187 18.0792C20.4271 17.586 21.1072 17.0505 21.844 16.6278C22.6232 16.1768 23.445 15.8386 24.3802 15.895C24.5502 15.9091 24.706 15.9232 24.8761 15.9655C25.4287 16.0782 25.542 16.3037 25.287 16.8109C24.9753 17.4169 24.4652 17.8819 23.7993 18.0228C21.9857 18.4173 21.1072 19.6715 20.7671 21.3342C20.5546 22.3488 20.5688 23.4057 20.4696 24.4343C20.3846 25.1952 20.3563 25.9844 20.1579 26.7171C19.9595 27.478 19.4636 28.0699 18.6135 28.239C17.9051 28.3799 17.2816 28.1262 16.8707 27.5062C16.3748 26.7594 16.2615 25.9139 16.2332 25.0543C16.1906 23.8002 16.2473 22.5461 16.2048 21.292C16.1623 20.1647 16.1056 19.0515 15.9356 17.9382C15.7798 16.8955 15.2839 16.5432 14.2212 16.4868C13.9237 16.4728 13.5553 16.5291 13.4561 16.1487C13.3711 15.8105 13.6686 15.6273 13.8953 15.4441C14.8871 14.6832 16.6015 14.3872 17.8484 15.5568C18.6277 16.3037 19.3361 17.1069 19.7187 18.0792Z" fill="#2B41B7"/>
<path id="Vector_7" d="M84.5831 18.0792C85.2915 17.586 85.9433 17.0646 86.6659 16.6418C87.4452 16.1768 88.2953 15.8386 89.2446 15.895C89.4146 15.9091 89.5705 15.9232 89.7405 15.9655C90.2931 16.0782 90.4064 16.3037 90.1514 16.8109C89.8397 17.4169 89.3296 17.8819 88.6637 18.0228C86.8501 18.4173 85.9716 19.6715 85.6316 21.3342C85.419 22.3488 85.4332 23.4057 85.334 24.4343C85.249 25.1952 85.2207 25.9844 85.0223 26.7171C84.8239 27.478 84.328 28.0699 83.4779 28.239C82.7553 28.3799 82.1744 28.1403 81.7635 27.5344C81.2534 26.7876 81.1401 25.9139 81.0976 25.0543C81.0551 23.8002 81.1117 22.5461 81.0692 21.292C81.0267 20.1788 80.97 19.0515 80.8 17.9382C80.6442 16.8955 80.1483 16.5432 79.0856 16.4868C78.7881 16.4728 78.4197 16.5291 78.3205 16.1487C78.2355 15.8105 78.533 15.6273 78.7597 15.4441C79.7515 14.6832 81.466 14.3872 82.7128 15.5568C83.4921 16.3037 84.1864 17.1069 84.5831 18.0792Z" fill="#2B41B7"/>
<path id="Vector_8" d="M25.5987 22.1515C25.6695 20.8692 25.6695 19.5869 26.1088 18.3609C26.2363 18.0227 26.378 17.6845 26.548 17.3604C27.0581 16.3881 27.9649 16.0218 28.9992 15.9654C29.7643 15.9231 30.1752 16.4163 30.0477 17.1773C29.9627 17.6705 29.8068 18.1636 29.7643 18.6568C29.5659 20.5873 29.5093 22.5179 30.0052 24.4202C30.0618 24.6738 30.1752 24.8993 30.2744 25.1388C30.6711 26.252 32.2155 26.4352 32.9239 25.7307C33.1648 25.477 33.3915 25.2093 33.6324 24.9556C33.7882 24.8006 33.9441 24.6175 34.1283 24.5188C34.4541 24.3356 34.695 24.4765 34.695 24.857C34.695 25.0402 34.6667 25.2375 34.5958 25.4066C33.8874 27.3793 31.9179 29.0703 29.4101 28.6335C27.0439 28.2248 26.1938 27.013 25.8537 25.012C25.6979 24.0679 25.6837 23.0956 25.5987 22.1515Z" fill="#2B41B7"/>
<path id="Vector_9" d="M28.6449 14.1336C28.0215 14.1899 27.4973 13.8658 27.1856 13.2176C26.888 12.5976 26.9447 11.9917 27.3698 11.4421C27.8515 10.808 28.5599 10.7376 29.2542 10.8785C29.7359 10.9771 30.2035 11.2308 30.6002 11.5126C31.0678 11.8367 31.1528 12.3158 30.9403 12.8654C30.6286 13.6826 29.8351 14.1336 28.6449 14.1336Z" fill="url(#paint0_linear_1_565)"/>
<g id="Union">
<path d="M29.24 6.24021C29.1686 6.54335 29.1149 7.09151 29.0846 7.58129C29.0693 7.82804 29.0597 8.06359 29.0568 8.25102C29.0553 8.34463 29.0555 8.42729 29.0577 8.49383C29.0596 8.55648 29.0635 8.61573 29.0725 8.65582C29.0734 8.66003 29.0746 8.66421 29.0759 8.66832C29.1156 8.7913 29.1891 8.88784 29.2928 8.9486C29.3929 9.00723 29.5092 9.02558 29.6269 9.01708C29.8593 9.01512 30.0521 8.89334 30.166 8.71708C30.2543 8.58032 30.3121 8.4056 30.3579 8.24389C30.3757 8.18137 30.3915 8.12158 30.4065 8.06457C30.4326 7.96593 30.4565 7.87559 30.4843 7.79389C30.7569 7.05949 30.8756 6.42402 31.0049 5.73215L31.0049 5.73209C31.0435 5.52531 31.0831 5.31348 31.128 5.09248C31.1289 5.08821 31.1296 5.08391 31.13 5.07957C31.1743 4.66865 31.2623 4.19608 31.3379 3.7908L31.3379 3.7908L31.341 3.77397C31.4125 3.42739 31.4907 3.08067 31.5697 2.73081L31.5834 2.67002C31.6669 2.29974 31.7508 1.92595 31.8271 1.54794C31.9036 1.18457 31.9648 0.821636 32.0254 0.46195L32.0254 0.461947L32.0257 0.460585L32.026 0.458563L32.0263 0.456511C32.0454 0.318146 32.0117 0.130559 31.8295 0.0453189C31.6466 -0.0576001 31.4701 0.0317788 31.381 0.144153C31.2574 0.287842 31.1305 0.451207 31.0337 0.617727L31.0328 0.619211C30.7066 1.19637 30.4902 1.80378 30.2777 2.41468L30.2775 2.4152C29.8496 3.66093 29.5443 4.95279 29.2409 6.23672L29.24 6.24021Z" fill="url(#paint1_linear_1_565)"/>
<path d="M29.24 6.24021C29.1686 6.54335 29.1149 7.09151 29.0846 7.58129C29.0693 7.82804 29.0597 8.06359 29.0568 8.25102C29.0553 8.34463 29.0555 8.42729 29.0577 8.49383C29.0596 8.55648 29.0635 8.61573 29.0725 8.65582C29.0734 8.66003 29.0746 8.66421 29.0759 8.66832C29.1156 8.7913 29.1891 8.88784 29.2928 8.9486C29.3929 9.00723 29.5092 9.02558 29.6269 9.01708C29.8593 9.01512 30.0521 8.89334 30.166 8.71708C30.2543 8.58032 30.3121 8.4056 30.3579 8.24389C30.3757 8.18137 30.3915 8.12158 30.4065 8.06457C30.4326 7.96593 30.4565 7.87559 30.4843 7.79389C30.7569 7.05949 30.8756 6.42402 31.0049 5.73215L31.0049 5.73209C31.0435 5.52531 31.0831 5.31348 31.128 5.09248C31.1289 5.08821 31.1296 5.08391 31.13 5.07957C31.1743 4.66865 31.2623 4.19608 31.3379 3.7908L31.3379 3.7908L31.341 3.77397C31.4125 3.42739 31.4907 3.08067 31.5697 2.73081L31.5834 2.67002C31.6669 2.29974 31.7508 1.92595 31.8271 1.54794C31.9036 1.18457 31.9648 0.821636 32.0254 0.46195L32.0254 0.461947L32.0257 0.460585L32.026 0.458563L32.0263 0.456511C32.0454 0.318146 32.0117 0.130559 31.8295 0.0453189C31.6466 -0.0576001 31.4701 0.0317788 31.381 0.144153C31.2574 0.287842 31.1305 0.451207 31.0337 0.617727L31.0328 0.619211C30.7066 1.19637 30.4902 1.80378 30.2777 2.41468L30.2775 2.4152C29.8496 3.66093 29.5443 4.95279 29.2409 6.23672L29.24 6.24021Z" stroke="url(#paint2_linear_1_565)"/>
</g>
<g id="Union_2">
<path d="M24.4724 7.60882C24.6411 7.87112 24.9988 8.29156 25.3307 8.6547C25.4978 8.83765 25.6609 9.00873 25.794 9.14147C25.8605 9.20778 25.9202 9.26525 25.9696 9.31014C26.0162 9.3524 26.0616 9.39095 26.0967 9.41251C26.1004 9.41478 26.1042 9.41688 26.1081 9.4188C26.2245 9.47622 26.3453 9.49118 26.4614 9.45959C26.5734 9.4291 26.6678 9.35898 26.7437 9.26915C26.9043 9.10206 26.951 8.87972 26.9033 8.67564C26.8663 8.5173 26.7807 8.35431 26.6961 8.20886C26.6634 8.15264 26.6313 8.09969 26.6007 8.0492L26.6007 8.04919C26.5478 7.96183 26.4993 7.88182 26.4599 7.80501C26.1206 7.09861 25.7453 6.5709 25.3367 5.99636L25.3367 5.99632C25.2146 5.82461 25.0895 5.64869 24.9615 5.46259C24.959 5.459 24.9564 5.45552 24.9536 5.45217C24.6883 5.13411 24.409 4.74183 24.1696 4.40541L24.1596 4.39144C23.9597 4.09885 23.7643 3.80133 23.5672 3.50111L23.5329 3.44894C23.3243 3.13122 23.1133 2.8108 22.8941 2.49283C22.6855 2.18491 22.4666 1.88827 22.2496 1.59427L22.2496 1.59426L22.2488 1.59315L22.2475 1.59151L22.2463 1.58986C22.1599 1.47973 22.0012 1.37298 21.8126 1.44349C21.6109 1.50212 21.5523 1.69024 21.5712 1.8321C21.5886 2.02041 21.6179 2.2248 21.6704 2.40992L21.6709 2.41156C21.8594 3.04656 22.1463 3.62436 22.4385 4.2018L22.4387 4.20229C23.0383 5.37588 23.7566 6.49427 24.4705 7.6058L24.4724 7.60882Z" fill="url(#paint3_linear_1_565)"/>
<path d="M24.4724 7.60882C24.6411 7.87112 24.9988 8.29156 25.3307 8.6547C25.4978 8.83765 25.6609 9.00873 25.794 9.14147C25.8605 9.20778 25.9202 9.26525 25.9696 9.31014C26.0162 9.3524 26.0616 9.39095 26.0967 9.41251C26.1004 9.41478 26.1042 9.41688 26.1081 9.4188C26.2245 9.47622 26.3453 9.49118 26.4614 9.45959C26.5734 9.4291 26.6678 9.35898 26.7437 9.26915C26.9043 9.10206 26.951 8.87972 26.9033 8.67564C26.8663 8.5173 26.7807 8.35431 26.6961 8.20886C26.6634 8.15264 26.6313 8.09969 26.6007 8.0492L26.6007 8.04919C26.5478 7.96183 26.4993 7.88182 26.4599 7.80501C26.1206 7.09861 25.7453 6.5709 25.3367 5.99636L25.3367 5.99632C25.2146 5.82461 25.0895 5.64869 24.9615 5.46259C24.959 5.459 24.9564 5.45552 24.9536 5.45217C24.6883 5.13411 24.409 4.74183 24.1696 4.40541L24.1596 4.39144C23.9597 4.09885 23.7643 3.80133 23.5672 3.50111L23.5329 3.44894C23.3243 3.13122 23.1133 2.8108 22.8941 2.49283C22.6855 2.18491 22.4666 1.88827 22.2496 1.59427L22.2496 1.59426L22.2488 1.59315L22.2475 1.59151L22.2463 1.58986C22.1599 1.47973 22.0012 1.37298 21.8126 1.44349C21.6109 1.50212 21.5523 1.69024 21.5712 1.8321C21.5886 2.02041 21.6179 2.2248 21.6704 2.40992L21.6709 2.41156C21.8594 3.04656 22.1463 3.62436 22.4385 4.2018L22.4387 4.20229C23.0383 5.37588 23.7566 6.49427 24.4705 7.6058L24.4724 7.60882Z" stroke="url(#paint4_linear_1_565)"/>
</g>
<g id="Union_3">
<path d="M23.0593 13.0344C23.3687 13.0817 23.8842 13.1346 24.4157 13.1786C24.6643 13.1747 24.9012 13.1659 25.0893 13.1543C25.1832 13.1485 25.2661 13.1418 25.3326 13.1346C25.3953 13.1278 25.4544 13.1193 25.4939 13.1073C25.498 13.1061 25.5021 13.1046 25.5061 13.103C25.6263 13.0541 25.7174 12.9738 25.7703 12.8662C25.8213 12.7624 25.8307 12.6457 25.813 12.5296C25.7931 12.2993 25.656 12.1176 25.4705 12.0183C25.3266 11.9413 25.1469 11.8976 24.9813 11.8647C24.9172 11.8519 24.8561 11.8409 24.7978 11.8304C24.6969 11.8122 24.6044 11.7955 24.5204 11.7742C23.763 11.5609 23.1168 11.4924 22.4132 11.4178L22.4132 11.4178C22.2029 11.3956 21.9874 11.3727 21.7624 11.3453C21.7581 11.3448 21.7537 11.3445 21.7493 11.3444C21.3339 11.3323 20.8534 11.2816 20.4412 11.2382L20.4241 11.2364C20.0712 11.1923 19.7175 11.1416 19.3607 11.0905L19.2987 11.0816C18.921 11.0275 18.5398 10.9733 18.1549 10.9269C17.7847 10.8792 17.4161 10.8466 17.0509 10.8144L17.0495 10.8143L17.0474 10.8141L17.0454 10.814C16.9052 10.8057 16.7197 10.8537 16.6484 11.041C16.5594 11.2303 16.6627 11.3984 16.7822 11.478C16.9359 11.5894 17.1095 11.7026 17.2839 11.7857L17.2855 11.7864C17.8893 12.0652 18.515 12.2327 19.1439 12.3961L19.1444 12.3962C20.0479 12.6271 20.9714 12.7495 21.8967 12.8721C22.2844 12.9235 22.6723 12.9749 23.0593 13.0344Z" fill="url(#paint5_linear_1_565)"/>
<path d="M23.0593 13.0344C23.3687 13.0817 23.8842 13.1346 24.4157 13.1786C24.6643 13.1747 24.9012 13.1659 25.0893 13.1543C25.1832 13.1485 25.2661 13.1418 25.3326 13.1346C25.3953 13.1278 25.4544 13.1193 25.4939 13.1073C25.498 13.1061 25.5021 13.1046 25.5061 13.103C25.6263 13.0541 25.7174 12.9738 25.7703 12.8662C25.8213 12.7624 25.8307 12.6457 25.813 12.5296C25.7931 12.2993 25.656 12.1176 25.4705 12.0183C25.3266 11.9413 25.1469 11.8976 24.9813 11.8647C24.9172 11.8519 24.8561 11.8409 24.7978 11.8304C24.6969 11.8122 24.6044 11.7955 24.5204 11.7742C23.763 11.5609 23.1168 11.4924 22.4132 11.4178L22.4132 11.4178C22.2029 11.3956 21.9874 11.3727 21.7624 11.3453C21.7581 11.3448 21.7537 11.3445 21.7493 11.3444C21.3339 11.3323 20.8534 11.2816 20.4412 11.2382L20.4241 11.2364C20.0712 11.1923 19.7175 11.1416 19.3607 11.0905L19.2987 11.0816C18.921 11.0275 18.5398 10.9733 18.1549 10.9269C17.7847 10.8792 17.4161 10.8466 17.0509 10.8144L17.0495 10.8143L17.0474 10.8141L17.0454 10.814C16.9052 10.8057 16.7197 10.8537 16.6484 11.041C16.5594 11.2303 16.6627 11.3984 16.7822 11.478C16.9359 11.5894 17.1095 11.7026 17.2839 11.7857L17.2855 11.7864C17.8893 12.0652 18.515 12.2327 19.1439 12.3961L19.1444 12.3962C20.0479 12.6271 20.9714 12.7495 21.8967 12.8721C22.2844 12.9235 22.6723 12.9749 23.0593 13.0344Z" stroke="url(#paint6_linear_1_565)"/>
</g>
<g id="Union_4">
<path d="M33.624 7.68842C33.379 7.8823 32.9953 8.27946 32.6663 8.64514C32.5005 8.82936 32.3462 9.00831 32.2272 9.15363C32.1677 9.22621 32.1164 9.29121 32.0766 9.34474C32.0391 9.39514 32.0052 9.44403 31.9873 9.48101C31.9854 9.4849 31.9837 9.48888 31.9821 9.49293C31.9367 9.61393 31.9342 9.73496 31.9777 9.84657C32.0198 9.95429 32.0996 10.0404 32.1973 10.1062C32.3809 10.248 32.6081 10.2712 32.8073 10.203C32.9619 10.1501 33.116 10.0486 33.2528 9.94996C33.3057 9.91182 33.3553 9.87463 33.4027 9.83918C33.4846 9.77783 33.5596 9.72165 33.6324 9.67468C34.304 9.26631 34.7931 8.84074 35.3257 8.3774L35.3257 8.37735C35.4849 8.23888 35.6479 8.09702 35.8209 7.95125C35.8242 7.94843 35.8274 7.94546 35.8305 7.94235C36.1213 7.64711 36.4849 7.33049 36.7967 7.05897L36.8096 7.0477C37.0817 6.81974 37.3591 6.59584 37.6391 6.36992L37.6877 6.33066C37.984 6.09153 38.2827 5.84987 38.5782 5.60023C38.8647 5.36221 39.1388 5.11507 39.4105 4.87014L39.4105 4.87013L39.4116 4.8692L39.4131 4.86781L39.4146 4.86639C39.5158 4.7696 39.6063 4.60159 39.5163 4.42236C39.4369 4.22886 39.2427 4.19026 39.1028 4.22355C38.9162 4.26014 38.7148 4.31013 38.5351 4.38116L38.5335 4.3818C37.9178 4.6337 37.3695 4.97703 36.822 5.32551L36.8216 5.32581C35.7096 6.03982 34.665 6.86554 33.6268 7.6862L33.624 7.68842Z" fill="url(#paint7_linear_1_565)"/>
<path d="M33.624 7.68842C33.379 7.8823 32.9953 8.27946 32.6663 8.64514C32.5005 8.82936 32.3462 9.00831 32.2272 9.15363C32.1677 9.22621 32.1164 9.29121 32.0766 9.34474C32.0391 9.39514 32.0052 9.44403 31.9873 9.48101C31.9854 9.4849 31.9837 9.48888 31.9821 9.49293C31.9367 9.61393 31.9342 9.73496 31.9777 9.84657C32.0198 9.95429 32.0996 10.0404 32.1973 10.1062C32.3809 10.248 32.6081 10.2712 32.8073 10.203C32.9619 10.1501 33.116 10.0486 33.2528 9.94996C33.3057 9.91182 33.3553 9.87463 33.4027 9.83918C33.4846 9.77783 33.5596 9.72165 33.6324 9.67468C34.304 9.26631 34.7931 8.84074 35.3257 8.3774L35.3257 8.37735C35.4849 8.23888 35.6479 8.09702 35.8209 7.95125C35.8242 7.94843 35.8274 7.94546 35.8305 7.94235C36.1213 7.64711 36.4849 7.33049 36.7967 7.05897L36.8096 7.0477C37.0817 6.81974 37.3591 6.59584 37.6391 6.36992L37.6877 6.33066C37.984 6.09153 38.2827 5.84987 38.5782 5.60023C38.8647 5.36221 39.1388 5.11507 39.4105 4.87014L39.4105 4.87013L39.4116 4.8692L39.4131 4.86781L39.4146 4.86639C39.5158 4.7696 39.6063 4.60159 39.5163 4.42236C39.4369 4.22886 39.2427 4.19026 39.1028 4.22355C38.9162 4.26014 38.7148 4.31013 38.5351 4.38116L38.5335 4.3818C37.9178 4.6337 37.3695 4.97703 36.822 5.32551L36.8216 5.32581C35.7096 6.03982 34.665 6.86554 33.6268 7.6862L33.624 7.68842Z" stroke="url(#paint8_linear_1_565)"/>
</g>
<g id="Union_5">
<path d="M35.2901 11.5549C34.9781 11.5805 34.4505 11.6528 33.9726 11.7748C33.7318 11.8362 33.5035 11.8996 33.3233 11.9545C33.2333 11.982 33.1543 12.0076 33.0913 12.0301C33.032 12.0512 32.9765 12.0731 32.9409 12.0939C32.9371 12.0961 32.9335 12.0985 32.93 12.101C32.8245 12.1764 32.7548 12.2756 32.7285 12.3925C32.7032 12.5053 32.7215 12.621 32.7658 12.7297C32.8392 12.9491 33.015 13.094 33.2187 13.1475C33.3767 13.1891 33.5617 13.19 33.7305 13.1836C33.7957 13.1811 33.8578 13.1777 33.917 13.1744L33.917 13.1744C34.0194 13.1687 34.1132 13.1635 34.1999 13.1647C35.0142 13.1293 35.4951 13.086 35.8214 13.0567C36.0454 13.0366 36.1965 13.023 36.3326 13.023L36.3326 13.023C36.5423 12.9959 36.7572 12.9682 36.9824 12.9427C36.9868 12.9422 36.9911 12.9415 36.9954 12.9406C37.4022 12.856 37.8814 12.794 38.2923 12.7407L38.3094 12.7385C38.663 12.6995 39.0188 12.6669 39.3778 12.6339L39.4402 12.6282C39.8201 12.5933 40.2035 12.5577 40.5887 12.5136C40.9599 12.4742 41.3259 12.4204 41.6887 12.3671L41.6887 12.3671L41.69 12.3669L41.6921 12.3666L41.6941 12.3663C41.8324 12.3418 42.0015 12.2522 42.027 12.0535C42.0692 11.8488 41.9294 11.7093 41.7944 11.6596C41.6189 11.5868 41.4236 11.517 41.2345 11.4766L41.2328 11.4762C40.5802 11.3451 39.9325 11.3272 39.2827 11.3141L39.2821 11.3141C38.1929 11.2963 37.3757 11.3669 36.3837 11.4526C36.1704 11.471 35.949 11.4901 35.7151 11.5092L35.2901 11.5549Z" fill="url(#paint9_linear_1_565)"/>
<path d="M35.2901 11.5549C34.9781 11.5805 34.4505 11.6528 33.9726 11.7748C33.7318 11.8362 33.5035 11.8996 33.3233 11.9545C33.2333 11.982 33.1543 12.0076 33.0913 12.0301C33.032 12.0512 32.9765 12.0731 32.9409 12.0939C32.9371 12.0961 32.9335 12.0985 32.93 12.101C32.8245 12.1764 32.7548 12.2756 32.7285 12.3925C32.7032 12.5053 32.7215 12.621 32.7658 12.7297C32.8392 12.9491 33.015 13.094 33.2187 13.1475C33.3767 13.1891 33.5617 13.19 33.7305 13.1836C33.7957 13.1811 33.8578 13.1777 33.917 13.1744L33.917 13.1744C34.0194 13.1687 34.1132 13.1635 34.1999 13.1647C35.0142 13.1293 35.4951 13.086 35.8214 13.0567C36.0454 13.0366 36.1965 13.023 36.3326 13.023L36.3326 13.023C36.5423 12.9959 36.7572 12.9682 36.9824 12.9427C36.9868 12.9422 36.9911 12.9415 36.9954 12.9406C37.4022 12.856 37.8814 12.794 38.2923 12.7407L38.3094 12.7385C38.663 12.6995 39.0188 12.6669 39.3778 12.6339L39.4402 12.6282C39.8201 12.5933 40.2035 12.5577 40.5887 12.5136C40.9599 12.4742 41.3259 12.4204 41.6887 12.3671L41.6887 12.3671L41.69 12.3669L41.6921 12.3666L41.6941 12.3663C41.8324 12.3418 42.0015 12.2522 42.027 12.0535C42.0692 11.8488 41.9294 11.7093 41.7944 11.6596C41.6189 11.5868 41.4236 11.517 41.2345 11.4766L41.2328 11.4762C40.5802 11.3451 39.9325 11.3272 39.2827 11.3141L39.2821 11.3141C38.1929 11.2963 37.3757 11.3669 36.3837 11.4526C36.1704 11.471 35.949 11.4901 35.7151 11.5092L35.2901 11.5549Z" stroke="url(#paint10_linear_1_565)"/>
</g>
</g>
<defs>
<linearGradient id="paint0_linear_1_565" x1="27.0831" y1="13.75" x2="31.1603" y2="11.4577" gradientUnits="userSpaceOnUse">
<stop stop-color="#FF3D00"/>
<stop offset="1" stop-color="#FF9900"/>
</linearGradient>
<linearGradient id="paint1_linear_1_565" x1="29.1175" y1="7.96069" x2="32.969" y2="7.37493" gradientUnits="userSpaceOnUse">
<stop stop-color="#FF3D00"/>
<stop offset="1" stop-color="#FF9900"/>
</linearGradient>
<linearGradient id="paint2_linear_1_565" x1="29.1175" y1="7.96069" x2="32.969" y2="7.37493" gradientUnits="userSpaceOnUse">
<stop stop-color="#FF3D00"/>
<stop offset="1" stop-color="#FF9900"/>
</linearGradient>
<linearGradient id="paint3_linear_1_565" x1="25.6271" y1="8.89573" x2="27.879" y2="5.73351" gradientUnits="userSpaceOnUse">
<stop stop-color="#FF3D00"/>
<stop offset="1" stop-color="#FF9900"/>
</linearGradient>
<linearGradient id="paint4_linear_1_565" x1="25.6271" y1="8.89573" x2="27.879" y2="5.73351" gradientUnits="userSpaceOnUse">
<stop stop-color="#FF3D00"/>
<stop offset="1" stop-color="#FF9900"/>
</linearGradient>
<linearGradient id="paint5_linear_1_565" x1="24.7935" y1="13.1165" x2="23.9231" y2="9.33956" gradientUnits="userSpaceOnUse">
<stop stop-color="#FF3D00"/>
<stop offset="1" stop-color="#FF9900"/>
</linearGradient>
<linearGradient id="paint6_linear_1_565" x1="24.7935" y1="13.1165" x2="23.9231" y2="9.33956" gradientUnits="userSpaceOnUse">
<stop stop-color="#FF3D00"/>
<stop offset="1" stop-color="#FF9900"/>
</linearGradient>
<linearGradient id="paint7_linear_1_565" x1="32.4558" y1="8.96322" x2="35.8312" y2="10.8986" gradientUnits="userSpaceOnUse">
<stop stop-color="#FF3D00"/>
<stop offset="1" stop-color="#FF9900"/>
</linearGradient>
<linearGradient id="paint8_linear_1_565" x1="32.4558" y1="8.96322" x2="35.8312" y2="10.8986" gradientUnits="userSpaceOnUse">
<stop stop-color="#FF3D00"/>
<stop offset="1" stop-color="#FF9900"/>
</linearGradient>
<linearGradient id="paint9_linear_1_565" x1="33.6198" y1="11.9227" x2="35.3443" y2="15.3974" gradientUnits="userSpaceOnUse">
<stop stop-color="#FF3D00"/>
<stop offset="1" stop-color="#FF9900"/>
</linearGradient>
<linearGradient id="paint10_linear_1_565" x1="33.6198" y1="11.9227" x2="35.3443" y2="15.3974" gradientUnits="userSpaceOnUse">
<stop stop-color="#FF3D00"/>
<stop offset="1" stop-color="#FF9900"/>
</linearGradient>
</defs>
</svg>
