<svg width="197" height="29" viewBox="0 0 197 29" fill="none" xmlns="http://www.w3.org/2000/svg">
<g id="MarketWatch">
<g id="Group">
<path id="Vector" d="M47.5454 12.0577L47.2182 13.7339H47.12C46.6946 12.8136 45.5166 11.499 42.8987 11.499C38.6775 11.499 34.3581 14.7856 33.4091 19.9454C32.5911 24.4808 34.7508 28.4575 39.7574 28.4575C41.5898 28.4575 43.6841 27.7345 44.7967 26.1898H44.8948L44.6003 27.8988H49.2797L52.192 12.0577H47.5454ZM46.0074 19.9454C45.7129 21.4901 44.2404 24.0207 41.2953 24.0207C38.4157 24.0207 37.8267 21.4901 38.0885 20.0112C38.4157 18.2036 40.0191 15.9358 42.7679 15.9358C45.4511 15.9687 46.3674 18.105 46.0074 19.9454Z" fill="#0D2A54"/>
<path id="Vector_2" d="M54.8438 12.0575H59.2287L58.9342 13.7336H59.0324C59.5887 12.9777 60.7012 11.4988 63.3845 11.4988L62.501 16.2971C60.2758 16.33 58.6724 16.7901 58.247 19.2221L56.6436 27.8986H51.9315L54.8438 12.0575Z" fill="#0D2A54"/>
<path id="Vector_3" d="M66.5264 5.87988H71.2712L69.046 17.81H69.1115L74.5762 12.0586H80.1391L72.94 19.026L77.0631 27.8997H71.7293L68.6861 20.2749H68.5879L67.2136 27.8997H62.4688L66.5264 5.87988Z" fill="#0D2A54"/>
<path id="Vector_4" d="M87.6963 11.499C82.9187 11.499 78.6648 15.6401 77.8794 20.044C76.9959 24.7438 80.17 28.4247 84.6858 28.4247C86.2892 28.4247 87.9581 27.9317 89.3979 26.9786C90.9031 26.0584 92.2775 24.7109 93.3246 22.9362H88.5143C87.729 23.7578 86.8128 24.4151 85.373 24.4151C83.5405 24.4151 82.1661 23.2977 82.2643 21.4244H94.0772C94.2081 21.0628 94.3063 20.7671 94.4044 20.1755C95.3207 15.3443 92.5065 11.499 87.6963 11.499ZM82.9188 18.2364C83.2787 17.3162 84.5876 15.5086 87.0418 15.5086C89.496 15.5086 90.085 17.2833 90.085 18.2364H82.9188Z" fill="#0D2A54"/>
<path id="Vector_5" d="M27.1599 5.87988L18.8483 18.4344H18.7829V5.87988H14.758L0 27.8997H5.72649L14.0054 15.3451H14.0708V27.8997H18.1284L26.4073 15.3451H26.4727V27.8997H31.2175V5.87988H27.1599Z" fill="#0D2A54"/>
<path id="Vector_6" d="M106.381 12.0584H103.403L104.286 7.35864H100.163L99.8361 9.16624C99.4761 11.2368 98.1672 11.8612 96.4656 12.0584H96.4329L95.713 15.6407H98.0363L95.7785 27.8666H100.491L102.748 15.6407H105.759L106.381 12.0584Z" fill="#0D2A54"/>
</g>
<g id="Group_2">
<g id="Group_3">
<path id="Vector_7" d="M179.324 21.9219C177.786 25.5043 174.088 28.4622 169.834 28.4622C165.056 28.4622 162.079 24.6826 162.929 19.95C163.813 15.316 168.067 11.5365 172.812 11.5365C176.968 11.5365 179.847 14.3301 179.945 18.2082H175.168C174.873 17.0907 174.153 15.9733 172.157 15.9733C169.932 15.8747 168.1 17.6823 167.674 19.9829C167.249 22.3163 168.427 24.0253 170.685 24.0253C172.615 24.0253 173.793 22.9079 174.481 21.8891L179.324 21.9219ZM140.285 0.263672L131.123 5.88365H133.708L125.396 18.4382H125.298V5.88365H121.241L112.962 18.4382H112.864V5.88365H108.151V27.9035H112.275L120.586 15.3489H120.684V27.9035H124.742L139.434 5.88365H141.758L140.285 0.263672ZM149.219 27.9035H144.539L144.834 26.1944H144.736C143.623 27.7391 141.529 28.4622 139.696 28.4622C134.69 28.4622 132.53 24.5183 133.348 19.95C134.264 14.7902 138.616 11.5036 142.838 11.5036C145.423 11.5036 146.633 12.7854 147.059 13.7385H147.157L147.484 12.0623H152.164L149.219 27.9035ZM141.3 24.0582C144.212 24.0582 145.685 21.5276 146.012 19.9829C146.339 18.0767 145.455 15.9733 142.772 15.9733C140.056 15.9733 138.453 18.241 138.093 20.0486C137.831 21.5276 138.42 24.0582 141.3 24.0582ZM163.944 12.0623H160.999L161.882 7.36259H157.759L157.432 9.17019C157.072 11.2407 155.763 11.8651 154.062 12.0623H153.996L153.309 15.6447H155.632L153.374 27.8706H158.086L160.344 15.6447H163.355L163.944 12.0623ZM183.774 5.88365H188.486L187.046 13.7385H187.144C188.159 12.2595 189.5 11.5036 191.595 11.5036C193.1 11.5036 194.801 12.0623 195.587 13.2784C196.601 14.823 196.503 16.2034 195.947 19.0298L194.343 27.8706H189.631L191.202 19.2599C191.333 18.504 191.791 15.9405 189.304 15.9405C186.653 15.9405 186.195 18.3068 186.064 19.0955L184.461 27.8706H179.749L183.774 5.88365Z" fill="#00AC4E"/>
</g>
</g>
</g>
</svg>
