<svg width="56" height="64" viewBox="0 0 56 64" fill="none" xmlns="http://www.w3.org/2000/svg">
<g id="AP logo">
<path id="Fill-1" d="M0 57.3353H55.3016V0H0V57.3353Z" fill="white"/>
<path id="Fill-2" d="M0 57.3359V64.0003H55.3016V57.3359H0Z" fill="#FF322E"/>
<path id="Fill-3" d="M30.6796 15.1113V43.0359H37.3752V20.7432H40.066C43.1948 20.7432 44.9782 22.2294 44.9782 24.9358C44.9782 27.5796 43.1948 29.1284 40.066 29.1284H39.628V34.7602H40.3476C47.5751 34.7602 51.799 31.1308 51.799 24.9358C51.799 18.6312 47.5595 15.1113 40.3476 15.1113H30.6796ZM12.7515 15.1113L3.44336 43.0359H10.1859L16.5061 23.2931L19.6819 33.1645H15.5831L13.9405 38.7964H21.4809L22.8419 43.0359H29.7722L20.4641 15.1113H12.7515Z" fill="#0D2A54"/>
</g>
</svg>
