<svg width="112" height="42" viewBox="0 0 112 42" fill="none" xmlns="http://www.w3.org/2000/svg">
<path fill-rule="evenodd" clip-rule="evenodd" d="M39.9108 13.0689V25.4004H45.9508V20.6991C45.9508 17.5901 45.9696 15.884 45.9979 15.6565C46.064 15.1731 46.2339 14.7087 46.4604 14.358C46.8756 13.7324 47.4702 13.448 48.2912 13.4954C49.3482 13.5523 49.9711 14.1779 50.1504 15.3722C50.1787 15.5522 50.1976 17.4195 50.1976 20.5285V25.4004H56.2375V19.7228C56.2375 14.9361 56.2281 13.9504 56.1715 13.4764C55.9733 11.7703 55.3976 10.4528 54.4256 9.46703C53.5856 8.62344 52.5475 8.12108 51.264 7.95047C50.7638 7.88412 49.5087 7.92203 49.0651 8.01682C47.9704 8.25378 47.1116 8.71823 46.3377 9.49547L45.913 9.922V0.737305H39.9203V13.0689H39.9108ZM104.114 0.926875C103.953 1.30602 97.8093 16.2157 97.8093 16.2347C97.8093 16.2442 99.4137 16.2537 101.386 16.2442H104.963L108.143 8.51918C109.899 4.2728 111.333 0.784697 111.333 0.76574C111.333 0.746783 109.729 0.737305 107.766 0.737305H104.198L104.114 0.926875ZM26.6701 7.93151C25.3395 8.13056 24.3296 8.50022 23.3198 9.1732C21.2908 10.5191 19.9035 12.8035 19.5166 15.4385C19.3373 16.6518 19.4128 18.1873 19.7148 19.3626C20.4603 22.3199 22.4327 24.5758 25.0375 25.4478C25.9812 25.7606 26.3304 25.8175 27.4912 25.8175C28.3311 25.8175 28.5859 25.808 28.8879 25.7417C30.1053 25.4763 31.0019 25.0118 31.7475 24.263L32.1344 23.8744V25.4099H37.9573V8.30117H32.1344V9.87461L31.8607 9.59025C31.1623 8.85093 30.2092 8.33909 29.0295 8.05473C28.6331 7.95995 28.4444 7.94099 27.6988 7.93151C27.2175 7.93151 26.7645 7.93151 26.689 7.93151H26.6701ZM65.2314 7.9789C63.5798 8.19691 61.9094 8.91728 60.6826 9.922C58.276 11.8841 57.1058 15.0404 57.5776 18.2821C58.0967 21.8555 60.6165 24.6516 64.1367 25.5616C64.9294 25.7606 65.6372 25.8459 66.5809 25.8459C68.2325 25.8459 69.4877 25.5616 70.8655 24.8791C73.4608 23.59 75.1879 21.1635 75.6125 18.2157C75.7164 17.5048 75.7164 16.2442 75.6125 15.5428C75.3955 14.0831 74.8576 12.7182 74.0271 11.5618C73.6968 11.0973 72.8663 10.2253 72.4133 9.87461C71.1015 8.85093 69.5632 8.20639 67.8927 7.98838C67.2227 7.90307 65.9014 7.90307 65.2408 7.98838L65.2314 7.9789ZM84.446 7.9789C82.8133 8.19691 81.275 8.85093 79.9821 9.86513C79.5291 10.2158 78.6986 11.0879 78.3683 11.5523C77.5378 12.7087 76.9998 14.0736 76.7828 15.5333C76.679 16.2347 76.679 17.4953 76.7828 18.2062C77.3302 22.0071 80.067 24.9076 83.8137 25.6564C84.5309 25.7985 84.9461 25.8365 85.8049 25.8365C87.4376 25.8365 88.8438 25.5142 90.1745 24.8223C93.7135 22.9929 95.5349 19.0593 94.7233 14.9835C93.9778 11.2206 90.9955 8.49074 87.079 7.9789C86.4373 7.8936 85.1066 7.8936 84.446 7.9789ZM0 8.32013C0 8.32013 1.63267 12.2063 3.61453 16.9172C5.60582 21.6375 7.22906 25.5142 7.22906 25.5426C7.22906 25.5711 6.64394 26.9739 5.92669 28.6611C5.20945 30.3482 4.63377 31.7416 4.63377 31.7511C4.63377 31.7605 6.07769 31.7605 7.84249 31.7511H11.0512L15.8737 20.0735C18.5256 13.6565 20.6962 8.377 20.6962 8.34856C20.6962 8.30117 20.0545 8.29169 17.5253 8.30117H14.3449L12.3913 13.2869C11.3155 16.0262 10.4283 18.2536 10.4189 18.2347C10.4095 18.2252 9.53179 15.9883 8.46536 13.2584L6.54013 8.31065H3.26534C1.4628 8.29169 0 8.30117 0 8.31065V8.32013ZM29.624 13.4859C30.832 13.7608 31.7946 14.7181 32.125 15.9598C32.2571 16.4527 32.2571 17.2679 32.125 17.7607C31.7946 19.0024 30.8792 19.9219 29.6429 20.2536C29.1522 20.3863 28.3405 20.3863 27.8498 20.2536C26.7928 19.9787 25.8868 19.192 25.4999 18.2157C25.0752 17.1446 25.2073 15.7987 25.8208 14.8982C26.6701 13.666 28.0952 13.1352 29.624 13.4859ZM67.2227 13.4954C68.5345 13.7324 69.5537 14.7087 69.8746 16.0546C69.9784 16.5001 69.969 17.3058 69.8557 17.7607C69.5443 18.955 68.6572 19.865 67.4869 20.1873C67.0811 20.301 66.0902 20.301 65.6938 20.1873C64.7312 19.9219 63.9668 19.2773 63.5515 18.3769C63.3062 17.8461 63.2307 17.5048 63.2307 16.8603C63.2307 16.2821 63.2873 15.9883 63.4855 15.4954C63.7214 14.8982 64.1744 14.339 64.7123 13.9883C65.4107 13.5238 66.3639 13.3438 67.2321 13.4954H67.2227ZM86.4373 13.4954C87.5603 13.6945 88.4946 14.4433 88.9099 15.4954C89.108 15.9883 89.1647 16.2821 89.1647 16.8603C89.1647 17.4953 89.0892 17.8461 88.8438 18.3769C88.4286 19.2678 87.6641 19.9219 86.7015 20.1873C86.3051 20.301 85.3048 20.2915 84.9084 20.1873C83.7476 19.865 82.851 18.955 82.5396 17.7607C82.4075 17.2679 82.4075 16.4527 82.5396 15.9598C82.9454 14.4433 84.2195 13.448 85.7861 13.4291C85.9654 13.4291 86.2579 13.4575 86.4467 13.4859L86.4373 13.4954ZM99.2344 17.7228C97.4885 17.9408 96.1012 19.2015 95.7237 20.9171C95.6199 21.391 95.6293 22.2346 95.752 22.718C96.12 24.2061 97.262 25.3151 98.7436 25.6279C98.9324 25.6658 99.291 25.6943 99.5647 25.6943C100.707 25.6943 101.613 25.3246 102.415 24.5095C103.226 23.6943 103.594 22.8033 103.594 21.628C103.594 20.1967 102.943 19.0024 101.754 18.2726C101.056 17.8366 100.046 17.6186 99.2344 17.7228ZM49.4898 27.0023C48.2724 27.4099 47.7439 28.7843 48.3762 29.8743C48.546 30.1587 48.9424 30.5094 49.2727 30.6705C49.5559 30.8032 49.5936 30.8127 50.0938 30.8127C50.594 30.8127 50.6317 30.8127 50.9148 30.6705C51.2923 30.4904 51.717 30.0828 51.8869 29.7132C52.3493 28.7274 51.9246 27.59 50.9243 27.1066C50.6223 26.9644 50.5468 26.9454 50.1693 26.936C49.839 26.9265 49.688 26.936 49.4992 27.0023H49.4898ZM44.4502 27.0971C42.8364 27.4194 41.77 28.4525 41.3642 30.0923C41.3076 30.3388 41.2604 30.6705 41.2509 31.0876L41.2226 31.7131H39.9203V33.1539L39.9391 34.5946H40.5809L41.2226 34.6231V41.4381H44.7239V34.6231H45.913L47.1021 34.6041V33.1634L47.121 31.7226H44.705L44.7333 31.4004C44.7994 30.6895 45.0825 30.3008 45.6393 30.1302C46.0168 30.0165 46.5548 30.0354 46.9606 30.1776C47.1021 30.225 47.2248 30.2724 47.2342 30.2724C47.2437 30.2724 47.2531 29.6089 47.2531 28.8032V27.3341L46.9983 27.2393C46.5736 27.0781 46.1489 27.0213 45.46 27.0213C45.0259 27.0213 44.6861 27.0497 44.4219 27.1066L44.4502 27.0971ZM58.7856 31.5141C58.0495 31.6752 57.4455 32.0354 57.0586 32.5567L56.8604 32.8221V31.7131H53.3119V41.4286H56.8604V38.7841C56.8604 37.2581 56.8793 36.0259 56.9076 35.8742C56.9642 35.5235 57.1718 35.097 57.37 34.9548C57.8797 34.5662 58.6913 34.6515 59.031 35.1444C59.2953 35.533 59.2953 35.4761 59.3141 38.5946L59.333 41.4381H62.872V38.2533C62.872 34.8695 62.8532 34.4809 62.6739 33.8458C62.4945 33.2297 62.2586 32.8221 61.8245 32.3861C61.4092 31.9691 61.0506 31.7511 60.5127 31.5994C60.088 31.4762 59.2198 31.4383 58.8045 31.5331L58.7856 31.5141ZM67.7323 31.4857C67.1566 31.5615 66.3073 31.9027 65.8543 32.2345C64.8256 32.9833 64.1178 34.1586 63.863 35.5235C63.7686 36.0638 63.7686 37.1538 63.863 37.6751C64.0328 38.5566 64.3726 39.3434 64.8539 39.9784C65.4956 40.8315 66.4111 41.4097 67.4303 41.6182C67.9871 41.732 68.912 41.713 69.3839 41.5708C69.9218 41.4097 70.3748 41.1538 70.7617 40.7936L71.1109 40.4618V41.4381H74.6122V31.7226H71.1109V32.7273L70.8844 32.4809C70.422 31.988 69.7708 31.6563 69.0252 31.5236C68.676 31.4667 68.0343 31.4477 67.7229 31.4857H67.7323ZM81.4732 31.5236C80.8503 31.6563 80.1331 32.0923 79.765 32.5852L79.614 32.7842V31.7131H77.8303L76.0467 31.7321V36.5756L76.0278 41.4192H79.614V38.6609C79.614 35.7415 79.614 35.6847 79.8216 35.2865C80.0104 34.9169 80.3784 34.6989 80.8126 34.6989C81.1901 34.6989 81.3977 34.7747 81.6336 35.0022C82.0111 35.3813 82.0017 35.2392 82.0111 38.5282V41.4192H85.569L85.5501 37.8931C85.5313 34.405 85.5313 34.3577 85.4369 33.988C85.3803 33.7795 85.2387 33.4098 85.116 33.1634C84.9367 32.7937 84.8423 32.6515 84.5592 32.3766C84.1912 32.007 83.8797 31.7984 83.4739 31.6563C82.8699 31.4383 82.0772 31.3814 81.4637 31.5141L81.4732 31.5236ZM90.8162 31.5236C89.259 31.77 87.985 32.6136 87.2206 33.8932C86.9941 34.2818 86.8148 34.7273 86.6732 35.2676C86.5599 35.7036 86.5505 35.8079 86.5505 36.5567C86.5505 37.4382 86.5883 37.732 86.7959 38.3671C87.3338 40.0258 88.6739 41.2012 90.467 41.5993C90.7596 41.6656 91.0238 41.6846 91.675 41.6846C92.5999 41.6846 92.9585 41.6182 93.6474 41.3433L93.9966 41.2012V39.5708L94.0155 37.9405L93.7229 38.1112C93.2983 38.3671 92.9396 38.4619 92.4017 38.4903C91.8449 38.5187 91.5429 38.4619 91.1371 38.2533C90.769 38.0638 90.4765 37.7604 90.2877 37.3623C90.1556 37.0875 90.1462 37.0306 90.1462 36.6041C90.1462 36.2249 90.165 36.0922 90.25 35.8932C90.5425 35.1633 91.222 34.7273 92.1375 34.6894C92.7886 34.661 93.0529 34.7273 93.9872 35.1918C94.0061 35.1918 94.0155 34.4809 94.0155 33.5804V31.9596L93.7324 31.8458C92.883 31.5046 91.76 31.3814 90.8162 31.5331V31.5236ZM98.8758 31.5236C96.1767 31.9975 94.4024 34.3671 94.6667 37.1538C94.7611 38.1396 95.0159 38.9073 95.4877 39.6182C96.1578 40.6324 97.1676 41.2865 98.5266 41.5898C99.1117 41.7225 100.612 41.7035 101.245 41.5708C102.217 41.3528 103.085 40.8978 103.708 40.2723C104 39.9784 104.472 39.3434 104.434 39.3054C104.425 39.296 103.745 39.0306 102.924 38.7178L101.433 38.1396L101.216 38.3671C100.943 38.6419 100.726 38.7747 100.386 38.86C99.3476 39.1348 98.3001 38.5851 98.1302 37.6751L98.0925 37.4761H101.424L104.755 37.4571V36.642C104.755 36.0354 104.727 35.732 104.67 35.4572C104.434 34.3577 104.01 33.5235 103.311 32.8411C102.651 32.1871 101.905 31.789 100.905 31.5615C100.461 31.4667 99.3288 31.4383 98.8758 31.5236ZM48.329 36.5756V41.4286H51.8775V31.7131H48.329V36.5662V36.5756ZM100.301 34.2344C100.546 34.3008 100.697 34.3861 100.924 34.5946C101.141 34.7937 101.263 35.0117 101.32 35.2771L101.358 35.4572H99.744C97.9226 35.4572 98.0641 35.4951 98.2246 35.078C98.4888 34.3671 99.3759 34.0069 100.301 34.2344ZM69.7991 34.7178C70.2804 34.8411 70.8089 35.2771 71.0165 35.732C71.5167 36.7936 71.0165 38.0164 69.9218 38.4145C69.5915 38.5377 68.9781 38.5472 68.6383 38.4429C68.0532 38.2628 67.5436 37.751 67.3642 37.1728C67.2887 36.9263 67.2793 36.7842 67.2887 36.4808C67.3076 36.1396 67.3265 36.0543 67.4681 35.77C67.8927 34.9074 68.8365 34.4904 69.7991 34.7368V34.7178Z" fill="#4B26B3"/>
</svg>
